<?xml version="1.0" encoding="UTF-8" standalone="no"?>
<!-- Created with Inkscape (http://www.inkscape.org/) -->

<svg
   width="280"
   height="150"
   id="svg2"
   version="1.1"
   inkscape:version="1.2.2 (b0a8486541, 2022-12-01)"
   sodipodi:docname="banner_onthesignal.svg"
   xml:space="preserve"
   xmlns:inkscape="http://www.inkscape.org/namespaces/inkscape"
   xmlns:sodipodi="http://sodipodi.sourceforge.net/DTD/sodipodi-0.dtd"
   xmlns="http://www.w3.org/2000/svg"
   xmlns:svg="http://www.w3.org/2000/svg"
   xmlns:rdf="http://www.w3.org/1999/02/22-rdf-syntax-ns#"
   xmlns:cc="http://creativecommons.org/ns#"
   xmlns:dc="http://purl.org/dc/elements/1.1/"><defs
     id="defs4"><rect
       x="-36.970203"
       y="58.318554"
       width="266.2038"
       height="69.755768"
       id="rect467" /><rect
       x="-33.58757"
       y="68.914307"
       width="195.68942"
       height="48.26931"
       id="rect457" /><rect
       x="47.270008"
       y="90.247856"
       width="89.945992"
       height="24.294958"
       id="rect451" /><rect
       x="87.64257"
       y="89.983482"
       width="30.71199"
       height="12.805459"
       id="rect445" /><style
       type="text/css"
       id="style242">*{stroke-linejoin: round; stroke-linecap: butt}</style><clipPath
       id="p667a643dd4"><rect
         x="10.8"
         y="10.8"
         width="410.39999"
         height="410.39999"
         id="rect259" /></clipPath><style
       type="text/css"
       id="style473">*{stroke-linejoin: round; stroke-linecap: butt}</style><clipPath
       id="pb143720774"><rect
         x="10.8"
         y="10.8"
         width="410.39999"
         height="410.39999"
         id="rect490" /></clipPath></defs><sodipodi:namedview
     id="base"
     pagecolor="#ffffff"
     bordercolor="#666666"
     borderopacity="1.0"
     inkscape:pageopacity="0.0"
     inkscape:pageshadow="2"
     inkscape:zoom="1.979899"
     inkscape:cx="14.394674"
     inkscape:cy="64.902301"
     inkscape:document-units="px"
     inkscape:current-layer="layer1"
     showgrid="false"
     fit-margin-top="0"
     fit-margin-left="0"
     fit-margin-right="0"
     fit-margin-bottom="0"
     inkscape:window-width="1920"
     inkscape:window-height="1043"
     inkscape:window-x="0"
     inkscape:window-y="0"
     inkscape:window-maximized="1"
     inkscape:showpageshadow="2"
     inkscape:pagecheckerboard="0"
     inkscape:deskcolor="#d1d1d1" /><metadata
     id="metadata7"><rdf:RDF><cc:Work
         rdf:about=""><dc:format>image/svg+xml</dc:format><dc:type
           rdf:resource="http://purl.org/dc/dcmitype/StillImage" /></cc:Work></rdf:RDF></metadata><g
     inkscape:label="Calque 1"
     inkscape:groupmode="layer"
     id="layer1"
     transform="matrix(0.65362802,0,0,0.65362802,-89.595847,-336.29832)"
     style="display:inline"><rect
       style="fill:#000000;stroke-width:1.52992"
       id="rect2390"
       width="445.50449"
       height="252.48566"
       x="131.92215"
       y="505.04736" /><g
       id="figure_1"
       transform="matrix(0.21449473,0,0,0.21449473,16.307841,542.46609)"><g
         id="patch_1"
         transform="matrix(4.1650906,0,0,2.5081913,581.92336,-133.42927)"><path
           d="M 0,432 H 432 V 0 H 0 Z"
           id="path246" /></g><text
         xml:space="preserve"
         style="font-size:85.5922px;fill:#ffffff;stroke-width:7.13268"
         x="943.89319"
         y="687.59955"
         id="text335"><tspan
           sodipodi:role="line"
           id="tspan333"
           style="fill:#ffffff;stroke-width:7.13268"
           x="943.89319"
           y="687.59955" /></text><text
         xml:space="preserve"
         style="font-size:85.5922px;fill:#ffffff;stroke-width:7.13268"
         x="1019.1386"
         y="586.69305"
         id="text391"><tspan
           sodipodi:role="line"
           id="tspan389"
           style="stroke-width:7.13268"
           x="1019.1386"
           y="586.69305" /></text><text
         xml:space="preserve"
         transform="matrix(7.1326795,0,0,7.1326795,587.58579,-130.74155)"
         id="text443"
         style="white-space:pre;shape-inside:url(#rect445);display:inline;fill:#ffffff" /><text
         xml:space="preserve"
         transform="matrix(7.1326795,0,0,7.1326795,587.58579,-130.74155)"
         id="text449"
         style="white-space:pre;shape-inside:url(#rect451);display:inline;fill:#ffffff" /><text
         xml:space="preserve"
         transform="matrix(7.1326795,0,0,7.1326795,587.58579,-130.74155)"
         id="text455"
         style="white-space:pre;shape-inside:url(#rect457);display:inline;fill:#ffffff" /><text
         xml:space="preserve"
         style="font-style:normal;font-variant:normal;font-weight:normal;font-stretch:normal;font-size:304.328px;font-family:sans-serif;-inkscape-font-specification:'sans-serif, Normal';font-variant-ligatures:normal;font-variant-caps:normal;font-variant-numeric:normal;font-variant-east-asian:normal;fill:#ffffff;stroke-width:7.13268;stroke-linecap:butt;stroke-linejoin:round"
         x="631.15302"
         y="842.41058"
         id="text463"><tspan
           sodipodi:role="line"
           id="tspan461"
           style="font-style:normal;font-variant:normal;font-weight:normal;font-stretch:normal;font-size:304.328px;font-family:sans-serif;-inkscape-font-specification:'sans-serif, Normal';font-variant-ligatures:normal;font-variant-caps:normal;font-variant-numeric:normal;font-variant-east-asian:normal;stroke-width:7.13268"
           x="631.15302"
           y="842.41058">Onthesignal</tspan></text><text
         xml:space="preserve"
         transform="matrix(7.1326795,0,0,7.1326795,587.58579,-130.74155)"
         id="text465"
         style="font-style:normal;font-variant:normal;font-weight:normal;font-stretch:normal;font-size:37.3333px;font-family:sans-serif;-inkscape-font-specification:'sans-serif, Normal';font-variant-ligatures:normal;font-variant-caps:normal;font-variant-numeric:normal;font-variant-east-asian:normal;white-space:pre;shape-inside:url(#rect467);display:inline;fill:#ffffff" /><g
         id="figure_1-2"
         transform="matrix(1.4495921,0,0,1.4495921,649.71698,-75.042695)"><g
           id="patch_1-3"><path
             d="M 0,432 H 432 V 0 H 0 Z"
             id="path477" /></g><g
           id="axes_1"><g
             id="patch_2"><path
               d="M 10.8,421.2 H 421.2 V 10.8 H 10.8 Z"
               id="path480" /></g><g
             id="matplotlib.axis_1" /><g
             id="matplotlib.axis_2" /><g
             id="line2d_1"><path
               d="m 216,216 28.07977,-41.9193 13.83953,-20.28658 13.60038,-19.48856 8.89567,-12.42505 8.7323,-11.8881 8.54679,-11.283334 8.33959,-10.614188 8.11124,-9.88449 7.86232,-9.098403 7.59347,-8.260409 7.30535,-7.375289 3.53881,-3.342373 3.45989,-3.105721 3.37878,-2.864641 3.29553,-2.619472 3.21018,-2.370566 3.1228,-2.118277 3.03345,-1.862968 2.94216,-1.604999 2.849,-1.344741 2.75405,-1.082564 2.65735,-0.818842 2.55897,-0.553952 2.45894,-0.288273 2.35738,-0.02218 2.25432,0.243942 2.14982,0.509718 2.04396,0.774765 1.9368,1.038707 1.82843,1.301168 1.71888,1.561771 1.60825,1.820148 1.4966,2.075926 1.38399,2.328743 1.27052,2.578238 1.15623,2.824053 1.04122,3.06584 0.92554,3.303253 0.80927,3.535952 0.6925,3.763607 0.57527,3.985891 0.4577,4.202489 0.33982,4.413092 0.22173,4.617397 0.10351,4.815115 -0.0148,5.005962 -0.13307,5.189668 -0.62059,10.900587 -1.09174,11.54334 -1.56012,12.12026 -2.02455,12.62802 -2.48384,13.06375 -2.93683,13.42494 -3.38238,13.70954 -3.81935,13.91593 -4.24662,14.04294 -4.66313,14.08982 -5.06781,14.05633 -5.45965,13.94264 -5.83762,13.74941 -3.05597,6.77767 -3.14483,6.70007 -3.23171,6.61289 -3.31654,6.51629 -3.39926,6.41038 -3.47983,6.29534 -3.55819,6.1713 -3.6343,6.03847 -3.7081,5.89701 -3.77954,5.74715 -3.8486,5.58909 -3.9152,5.42305 -3.97934,5.24927 -4.04094,5.068 -4.09998,4.87951 -4.15643,4.68405 -4.21023,4.48191 -4.26137,4.27337 -4.3098,4.05874 -4.3555,3.83831 -4.39844,3.61241 -4.43859,3.38136 -4.47593,3.14548 -4.51042,2.90512 -4.54206,2.6606 -4.57081,2.41229 -4.59667,2.16055 -4.61961,1.90571 -4.63963,1.64817 -4.6567,1.38826 -4.67081,1.12637 -4.68197,0.86289 -4.69015,0.59817 -4.69537,0.33259 -4.6976,0.0665 -4.69685,-0.1996 -4.69313,-0.46546 -4.68644,-0.73066 -4.67676,-0.99481 -4.66412,-1.25754 -4.64853,-1.51849 -4.62999,-1.77725 -4.60851,-2.03349 -4.5841,-2.28683 -4.5568,-2.5369 -4.5266,-2.78336 -4.49353,-3.02583 -4.45761,-3.26401 -4.41886,-3.49751 -4.37732,-3.72602 -4.333,-3.94924 -4.28592,-4.16679 -4.23614,-4.37842 -4.18366,-4.5838 -4.12853,-4.78263 -4.07078,-4.97464 -4.01046,-5.15956 -3.94758,-5.33711 -3.88221,-5.50705 -3.81437,-5.66913 -3.74412,-5.82312 -3.671489,-5.96881 -3.596528,-6.10597 -3.51929,-6.23443 -3.439819,-6.354 -3.358166,-6.46449 -3.274385,-6.56576 -3.188526,-6.65766 -3.100646,-6.74008 -5.929843,-13.68879 -5.555473,-13.90175 -5.167015,-14.03541 -4.765451,-14.08898 -4.351802,-14.06219 -3.927114,-13.95516 -3.492468,-13.76853 -3.048963,-13.50334 -2.597726,-13.16111 -2.139899,-12.74382 -1.676647,-12.2538 -1.209141,-11.69388 -0.73857,-11.067257 -0.192188,-5.27876 -0.07394,-5.098725 0.04436,-4.911414 0.162634,-4.717098 0.280801,-4.516049 0.39879,-4.308559 0.516527,-4.094921 0.633936,-3.875441 0.750943,-3.65043 0.867474,-3.420212 0.983455,-3.185115 1.098811,-2.945472 1.213472,-2.701627 1.327362,-2.453928 1.440411,-2.202728 1.552547,-1.948384 1.663698,-1.691261 1.773793,-1.431726 1.882765,-1.170146 1.990541,-0.906898 2.097056,-0.642355 2.202242,-0.376897 2.306029,-0.110901 2.408355,0.155255 2.509154,0.421187 2.608362,0.68652 2.705915,0.950873 2.801752,1.213869 2.895813,1.475133 2.988037,1.734292 3.078366,1.990978 3.166744,2.244822 3.253112,2.495464 3.337419,2.742546 3.419608,2.985713 3.499629,3.224622 3.577431,3.45893 7.379145,7.600716 7.66251,8.474517 7.92645,9.299971 8.17028,10.07237 8.39339,10.787306 8.59521,11.4407 8.77524,12.02882 8.93301,12.54833 13.64567,19.63924 13.87174,20.3945 23.40661,34.95563 28.10431,42.00193 13.87174,20.3945 13.64567,19.63924 8.93301,12.54833 8.77523,12.02882 8.59522,11.4407 8.39339,10.78731 8.17028,10.07237 7.92645,9.29997 7.66251,8.47451 7.37915,7.60072 3.57743,3.45893 3.49963,3.22462 3.41961,2.98572 3.33742,2.74254 3.25311,2.49547 3.16674,2.24482 3.07837,1.99098 2.98803,1.73429 2.89582,1.47513 2.80175,1.21387 2.70591,0.95087 2.60837,0.68652 2.50915,0.42119 2.40835,0.15525 2.30603,-0.1109 2.20225,-0.37689 2.09705,-0.64236 1.99054,-0.9069 1.88277,-1.17014 1.77379,-1.43173 1.6637,-1.69126 1.55255,-1.94838 1.44041,-2.20273 1.32736,-2.45393 1.21347,-2.70163 1.09881,-2.94547 0.98346,-3.18511 0.86747,-3.42022 0.75094,-3.65042 0.63394,-3.87545 0.51653,-4.09492 0.39879,-4.30856 0.2808,-4.51605 0.16263,-4.71709 0.0444,-4.91142 -0.0739,-5.09872 -0.19219,-5.27876 -0.73857,-11.06726 -1.20914,-11.69388 -1.67665,-12.2538 -2.1399,-12.74382 -2.59772,-13.16111 -3.04897,-13.50334 -3.49246,-13.76853 -3.92712,-13.95516 -4.3518,-14.06219 -4.76545,-14.08898 -5.16702,-14.03541 -5.55547,-13.90175 -5.92984,-13.6888 -3.10065,-6.74007 -3.18852,-6.65766 -3.27439,-6.56577 -3.35816,-6.46448 -3.43982,-6.354 -3.51929,-6.23443 -3.59653,-6.10597 -3.67149,-5.96881 -3.74412,-5.82312 -3.81437,-5.66913 -3.88221,-5.507047 -3.94758,-5.337111 -4.01046,-5.159557 -4.07078,-4.974644 -4.12853,-4.782631 -4.18366,-4.583796 -4.23614,-4.37842 -4.28592,-4.166798 -4.333,-3.949231 -4.37732,-3.726028 -4.41886,-3.49751 -4.45761,-3.264002 -4.49353,-3.025837 -4.5266,-2.783355 -4.5568,-2.536901 -4.5841,-2.286828 -4.60851,-2.033492 -4.62999,-1.777255 -4.64853,-1.518483 -4.66412,-1.257543 -4.67676,-0.99481 -4.68644,-0.730657 -4.69313,-0.465461 -4.69685,-0.199603 -4.6976,0.06654 -4.69537,0.332592 -4.69015,0.598166 -4.68197,0.862887 -4.67082,1.126377 -4.65669,1.388261 -4.63963,1.648162 -4.61961,1.905714 -4.59667,2.160546 -4.57081,2.412294 -4.54206,2.660603 -4.51042,2.905114 -4.47593,3.14548 -4.43859,3.381359 -4.39844,3.612414 -4.3555,3.838314 -4.30981,4.058738 -4.26136,4.273372 -4.21023,4.481907 -4.15643,4.684049 -4.09998,4.879508 -4.04094,5.068004 -3.97934,5.249271 -3.9152,5.423046 -3.8486,5.589092 -3.77954,5.74715 -3.708098,5.89701 -3.634295,6.03847 -3.558192,6.1713 -3.47983,6.29534 -3.399262,6.41038 -3.316538,6.51629 -3.231712,6.61289 -3.144835,6.70007 -6.021121,13.62329 -5.650425,13.85591 -5.265397,14.00948 -4.867016,14.08312 -4.45629,14.07642 -4.034262,13.98941 -3.602004,13.8226 -3.160608,13.57693 -2.711198,13.25379 -2.25491,12.85506 -1.792905,12.38297 -1.326352,11.84025 -0.856434,11.22998 -0.384346,10.55564 -0.01479,5.00596 0.103507,4.81511 0.221735,4.6174 0.339822,4.41309 0.457695,4.20249 0.575277,3.98589 0.692495,3.76361 0.809272,3.53595 0.925538,3.30325 1.041216,3.06584 1.156233,2.82406 1.270518,2.57823 1.383996,2.32875 1.496598,2.07592 1.608249,1.82015 1.718882,1.56177 1.828424,1.30117 1.936807,1.03871 2.043961,0.77476 2.149819,0.50972 2.254314,0.24394 2.357379,-0.0222 2.458949,-0.28827 2.558961,-0.55395 2.657349,-0.81884 2.754052,-1.08257 2.849008,-1.34474 2.942158,-1.605 3.033442,-1.86297 3.122803,-2.11827 3.210182,-2.37057 3.295527,-2.61947 3.378781,-2.86464 3.459893,-3.10572 3.538811,-3.34238 7.305347,-7.37529 7.59347,-8.2604 7.86232,-9.09841 8.11124,-9.88449 8.33959,-10.61419 8.54679,-11.28333 8.7323,-11.8881 8.89567,-12.42505 13.60038,-19.48856 13.83953,-20.28658 18.68811,-27.83925 L 216,216 v 0"
               clip-path="url(#pb143720774)"
               style="fill:none;stroke:#ffffff;stroke-width:25;stroke-linecap:square"
               id="path485" /></g></g></g></g></g></svg>
