<?xml version="1.0" encoding="UTF-8" standalone="no"?>
<svg
   xmlns:ooo="http://xml.openoffice.org/svg/export"
   xmlns:dc="http://purl.org/dc/elements/1.1/"
   xmlns:cc="http://creativecommons.org/ns#"
   xmlns:rdf="http://www.w3.org/1999/02/22-rdf-syntax-ns#"
   xmlns:svg="http://www.w3.org/2000/svg"
   xmlns="http://www.w3.org/2000/svg"
   xmlns:sodipodi="http://sodipodi.sourceforge.net/DTD/sodipodi-0.dtd"
   xmlns:inkscape="http://www.inkscape.org/namespaces/inkscape"
   version="1.2"
   width="64.084961"
   height="63.994194"
   viewBox="0 0 1808.62 1806.0584"
   preserveAspectRatio="xMidYMid"
   clip-path="url(#presentation_clip_path)"
   xml:space="preserve"
   id="svg2"
   inkscape:version="0.48.4 r9939"
   sodipodi:docname="Logo_OTS.svg"
   style="fill-rule:evenodd;stroke-width:28.22200012;stroke-linejoin:round"><metadata
     id="metadata91"><rdf:RDF><cc:Work
         rdf:about=""><dc:format>image/svg+xml</dc:format><dc:type
           rdf:resource="http://purl.org/dc/dcmitype/StillImage" /></cc:Work></rdf:RDF></metadata><sodipodi:namedview
     pagecolor="#ffffff"
     bordercolor="#666666"
     borderopacity="1"
     objecttolerance="10"
     gridtolerance="10"
     guidetolerance="10"
     inkscape:pageopacity="0"
     inkscape:pageshadow="2"
     inkscape:window-width="1366"
     inkscape:window-height="744"
     id="namedview89"
     showgrid="false"
     fit-margin-top="0"
     fit-margin-left="0"
     fit-margin-right="0"
     fit-margin-bottom="0"
     inkscape:zoom="3.5881183"
     inkscape:cx="-13.032537"
     inkscape:cy="75.689327"
     inkscape:window-x="0"
     inkscape:window-y="24"
     inkscape:window-maximized="1"
     inkscape:current-layer="svg2" /><defs
     class="ClipPathGroup"
     id="defs4"><clipPath
       id="presentation_clip_path"
       clipPathUnits="userSpaceOnUse"><rect
         x="0"
         y="0"
         width="21000"
         height="29700"
         id="rect7" /></clipPath></defs><defs
     class="TextShapeIndex"
     id="defs9"><g
       ooo:slide="id1"
       ooo:id-list="id3"
       id="g11" /></defs><defs
     class="EmbeddedBulletChars"
     id="defs13"><g
       id="bullet-char-template(57356)"
       transform="scale(4.8828125e-4,-4.8828125e-4)"><path
         d="M 580,1141 1163,571 580,0 -4,571 580,1141 z"
         id="path16"
         inkscape:connector-curvature="0" /></g><g
       id="bullet-char-template(57354)"
       transform="scale(4.8828125e-4,-4.8828125e-4)"><path
         d="m 8,1128 1129,0 L 1137,0 8,0 8,1128 z"
         id="path19"
         inkscape:connector-curvature="0" /></g><g
       id="bullet-char-template(10146)"
       transform="scale(4.8828125e-4,-4.8828125e-4)"><path
         d="M 174,0 602,739 174,1481 1456,739 174,0 z m 1184,739 -1049,607 350,-607 699,0 z"
         id="path22"
         inkscape:connector-curvature="0" /></g><g
       id="bullet-char-template(10132)"
       transform="scale(4.8828125e-4,-4.8828125e-4)"><path
         d="M 2015,739 1276,0 717,0 l 543,543 -1086,0 0,393 1086,0 -543,545 557,0 741,-742 z"
         id="path25"
         inkscape:connector-curvature="0" /></g><g
       id="bullet-char-template(10007)"
       transform="scale(4.8828125e-4,-4.8828125e-4)"><path
         d="m 0,-2 c -7,16 -16,29 -25,39 l 381,530 c -94,256 -141,385 -141,387 0,25 13,38 40,38 9,0 21,-2 34,-5 21,4 42,12 65,25 l 27,-13 111,-251 280,301 64,-25 24,25 c 21,-10 41,-24 62,-43 C 886,937 835,863 770,784 769,783 710,716 594,584 L 774,223 c 0,-27 -21,-55 -63,-84 l 16,-20 C 717,90 699,76 672,76 641,76 570,178 457,381 L 164,-76 c -22,-34 -53,-51 -92,-51 -42,0 -63,17 -64,51 -7,9 -10,24 -10,44 0,9 1,19 2,30 z"
         id="path28"
         inkscape:connector-curvature="0" /></g><g
       id="bullet-char-template(10004)"
       transform="scale(4.8828125e-4,-4.8828125e-4)"><path
         d="M 285,-33 C 182,-33 111,30 74,156 52,228 41,333 41,471 c 0,78 14,145 41,201 34,71 87,106 158,106 53,0 88,-31 106,-94 l 23,-176 c 8,-64 28,-97 59,-98 l 735,706 c 11,11 33,17 66,17 42,0 63,-15 63,-46 l 0,-122 c 0,-36 -10,-64 -30,-84 L 442,47 C 390,-6 338,-33 285,-33 z"
         id="path31"
         inkscape:connector-curvature="0" /></g><g
       id="bullet-char-template(9679)"
       transform="scale(4.8828125e-4,-4.8828125e-4)"><path
         d="M 813,0 C 632,0 489,54 383,161 276,268 223,411 223,592 c 0,181 53,324 160,431 106,107 249,161 430,161 179,0 323,-54 432,-161 108,-107 162,-251 162,-431 0,-180 -54,-324 -162,-431 C 1136,54 992,0 813,0 z"
         id="path34"
         inkscape:connector-curvature="0" /></g><g
       id="bullet-char-template(8226)"
       transform="scale(4.8828125e-4,-4.8828125e-4)"><path
         d="m 346,457 c -73,0 -137,26 -191,78 -54,51 -81,114 -81,188 0,73 27,136 81,188 54,52 118,78 191,78 73,0 134,-26 185,-79 51,-51 77,-114 77,-187 0,-75 -25,-137 -76,-188 -50,-52 -112,-78 -186,-78 z"
         id="path37"
         inkscape:connector-curvature="0" /></g><g
       id="bullet-char-template(8211)"
       transform="scale(4.8828125e-4,-4.8828125e-4)"><path
         d="m -4,459 1139,0 0,147 -1139,0 0,-147 z"
         id="path40"
         inkscape:connector-curvature="0" /></g></defs><defs
     class="TextEmbeddedBitmaps"
     id="defs42" /><g
     id="g44"
     transform="translate(-2843.567,-14757.97)"><g
       id="id2"
       class="Master_Slide"><g
         id="bg-id2"
         class="Background" /><g
         id="bo-id2"
         class="BackgroundObjects" /></g></g><g
     class="SlideGroup"
     id="g49"
     transform="matrix(0.12621685,0,0,0.13758316,-357.85851,-472.8024)"><g
       id="g51"><g
         id="id1"
         class="Slide"
         clip-path="url(#presentation_clip_path)"><g
           class="Page"
           id="g54"><g
             class="com.sun.star.drawing.ClosedBezierShape"
             id="g56"><g
               id="id3"><path
                 d="m 7308,6744 c 722,940 1496,2094 2271,3256 -775,1162 -1549,2316 -2271,3256 -26,34 -52,68 -78,101 -218,-300 -424,-626 -617,-970 -416,-742 -769,-1563 -1050,-2387 281,-824 634,-1644 1050,-2386 193,-345 399,-671 617,-970 26,33 52,67 78,100 z M 5844,5136 c 293,236 607,563 931,946 -275,362 -533,762 -773,1189 l 0,0 c -287,513 -546,1062 -774,1624 -277,-1048 -428,-2043 -428,-2819 0,-230 13,-442 42,-628 26,-168 63,-313 116,-432 l 0,0 c 20,-42 41,-81 65,-115 18,-24 37,-46 59,-64 15,-12 31,-21 48,-27 20,-7 41,-10 63,-10 38,0 76,7 115,19 52,15 105,37 159,64 127,64 254,154 377,253 z m -1524,-407 0,0 0,0 0,0 c -76,168 -133,374 -170,612 -33,219 -50,466 -50,735 0,1052 256,2484 725,3924 -469,1440 -725,2872 -725,3925 0,269 17,516 50,734 37,238 94,444 170,612 l 0,0 0,0 0,0 0,0 0,0 0,0 c 40,88 85,167 135,236 56,79 120,147 190,203 77,61 161,108 253,141 91,32 189,49 295,49 100,0 204,-16 309,-46 92,-26 186,-64 280,-112 168,-85 338,-201 501,-332 l 0,0 c 298,-239 617,-565 946,-946 90,98 182,192 275,282 l 0,0 0,0 0,0 0,0 c 382,368 780,653 1188,847 211,100 425,176 642,228 220,52 442,79 666,79 224,0 446,-27 666,-79 216,-52 431,-128 642,-228 408,-194 806,-479 1188,-847 l 0,0 0,0 0,0 0,0 c 93,-90 185,-184 275,-282 329,381 648,707 946,946 l 0,0 c 162,131 332,247 501,332 94,48 188,86 280,112 105,30 208,46 308,46 107,0 205,-17 296,-49 92,-33 176,-80 253,-141 70,-56 134,-124 190,-203 50,-69 95,-148 135,-236 l 0,0 0,0 0,0 0,0 0,0 0,0 c 76,-168 133,-374 170,-612 33,-218 50,-465 50,-734 0,-1053 -256,-2485 -725,-3925 469,-1440 725,-2872 725,-3924 0,-269 -17,-516 -50,-735 -37,-238 -94,-444 -170,-612 l 0,0 0,0 0,0 0,0 0,0 0,0 c -40,-88 -85,-167 -135,-236 -56,-79 -120,-147 -190,-203 -77,-61 -161,-108 -253,-141 -91,-32 -189,-49 -296,-49 -100,0 -203,16 -308,46 -93,27 -186,65 -281,112 -168,85 -338,202 -500,332 l 0,0 c -298,240 -617,566 -946,947 -90,-99 -182,-193 -275,-282 l 0,0 0,0 0,0 0,0 c -382,-368 -780,-653 -1188,-847 -211,-101 -425,-177 -642,-229 -220,-52 -442,-79 -666,-79 -224,0 -447,27 -666,79 -217,52 -431,128 -642,229 -408,194 -806,479 -1188,847 l 0,0 0,0 0,0 0,0 c -93,89 -185,183 -275,282 -329,-381 -648,-707 -946,-947 l 0,0 c -163,-130 -333,-247 -501,-332 -94,-47 -188,-85 -280,-112 -105,-30 -209,-46 -309,-46 -106,0 -204,17 -295,49 -92,33 -176,80 -253,141 -70,56 -134,124 -190,203 -50,69 -95,148 -135,236 z m 3543,1589 c -62,-80 -123,-158 -184,-236 101,-113 205,-221 310,-323 l 0,0 c 323,-311 658,-555 1004,-719 165,-79 333,-139 503,-180 166,-40 334,-60 504,-60 170,0 338,20 504,60 170,41 338,101 503,180 346,164 681,408 1004,719 l 0,0 c 105,102 209,209 310,323 -61,77 -122,156 -184,236 l 0,0 0,0 0,0 0,0 0,0 0,0 C 11456,7203 10729,8277 10000,9369 9270,8277 8543,7203 7863,6318 z m 5362,-236 c 324,-383 638,-710 931,-946 123,-99 250,-189 377,-253 53,-27 106,-49 159,-64 39,-12 77,-19 114,-19 23,0 44,3 64,10 17,6 33,16 48,27 22,18 41,40 59,64 24,34 45,73 65,115 l 0,0 c 53,119 90,264 116,432 29,186 42,398 42,628 0,776 -151,1771 -428,2819 -228,-562 -487,-1111 -775,-1624 l 0,0 0,0 0,0 0,0 0,0 0,0 c -239,-427 -498,-827 -772,-1189 z m -533,662 c 26,-33 52,-67 78,-100 218,299 424,625 617,970 l 0,0 c 416,742 769,1562 1050,2386 -281,824 -634,1645 -1050,2387 l 0,0 c -193,345 -399,670 -617,970 -26,-33 -52,-67 -78,-101 l 0,0 c -723,-940 -1497,-2094 -2271,-3256 774,-1161 1548,-2316 2271,-3255 0,-1 0,-1 0,-1 z m -4829,6939 c 680,-886 1407,-1959 2137,-3052 729,1093 1456,2166 2137,3052 l 0,0 0,0 0,0 0,0 0,0 0,0 c 62,80 123,158 184,235 -101,114 -205,222 -310,324 l 0,0 c -323,311 -658,554 -1004,718 -165,79 -333,140 -503,180 -166,40 -334,60 -504,60 -170,0 -338,-20 -504,-60 -170,-40 -338,-101 -503,-179 -346,-165 -681,-408 -1004,-719 l 0,0 c -105,-102 -209,-210 -310,-324 61,-77 122,-156 184,-235 z m 6134,-954 c 288,-513 547,-1061 775,-1623 277,1047 428,2042 428,2819 0,230 -13,441 -42,628 -26,167 -63,312 -116,431 l 0,0 c -20,42 -41,81 -65,115 -18,24 -37,46 -59,64 -15,11 -31,21 -48,27 -20,7 -41,10 -64,10 -37,0 -75,-7 -115,-19 -52,-15 -105,-37 -158,-64 -127,-64 -255,-153 -377,-252 -293,-236 -607,-564 -931,-946 274,-362 533,-762 772,-1190 z m -8867,2461 c -17,-6 -33,-15 -48,-27 -22,-18 -41,-40 -59,-64 -24,-34 -45,-73 -65,-115 l 0,0 c -53,-119 -90,-264 -116,-431 -29,-187 -42,-398 -42,-628 0,-777 151,-1772 428,-2819 228,562 487,1111 774,1623 l 0,0 c 240,428 498,828 773,1190 -324,382 -638,710 -931,946 -123,99 -250,188 -377,252 -54,27 -106,49 -159,64 -39,12 -77,19 -115,19 -22,0 -43,-3 -63,-10 z m 2374,-444 242,-252 -242,252 z m 4992,0 -242,-252 242,252 z m 0,-9491 0,0 -242,252 242,-252 z m -4992,0 0,0 242,252 -242,-252 z M 3350,16550 c -276,0 -500,-224 -500,-500 l 0,-12100 c 0,-276 224,-500 500,-500 l 13300,0 c 276,0 500,224 500,500 l 0,12100 c 0,276 -224,500 -500,500 l -13300,0 z"
                 id="path59"
                 inkscape:connector-curvature="0"
                 style="fill:#729fcf;stroke:none" /><path
                 d="m 7308,6744 c 722,940 1496,2094 2271,3256 -775,1162 -1549,2316 -2271,3256 -26,34 -52,68 -78,101 -218,-300 -424,-626 -617,-970 -416,-742 -769,-1563 -1050,-2387 281,-824 634,-1644 1050,-2386 193,-345 399,-671 617,-970 26,33 52,67 78,100 z"
                 id="path61"
                 inkscape:connector-curvature="0"
                 style="fill:none;stroke:#ffffff" /><path
                 d="m 5844,5136 c 293,236 607,563 931,946 -275,362 -533,762 -773,1189 l 0,0 c -287,513 -546,1062 -774,1624 -277,-1048 -428,-2043 -428,-2819 0,-230 13,-442 42,-628 26,-168 63,-313 116,-432 l 0,0 c 20,-42 41,-81 65,-115 18,-24 37,-46 59,-64 15,-12 31,-21 48,-27 20,-7 41,-10 63,-10 38,0 76,7 115,19 52,15 105,37 159,64 127,64 254,154 377,253 z"
                 id="path63"
                 inkscape:connector-curvature="0"
                 style="fill:none;stroke:#ffffff" /><path
                 d="m 4320,4729 0,0 0,0 0,0 c -76,168 -133,374 -170,612 -33,219 -50,466 -50,735 0,1052 256,2484 725,3924 -469,1440 -725,2872 -725,3925 0,269 17,516 50,734 37,238 94,444 170,612 l 0,0 0,0 0,0 0,0 0,0 0,0 c 40,88 85,167 135,236 56,79 120,147 190,203 77,61 161,108 253,141 91,32 189,49 295,49 100,0 204,-16 309,-46 92,-26 186,-64 280,-112 168,-85 338,-201 501,-332 l 0,0 c 298,-239 617,-565 946,-946 90,98 182,192 275,282 l 0,0 0,0 0,0 0,0 c 382,368 780,653 1188,847 211,100 425,176 642,228 220,52 442,79 666,79 224,0 446,-27 666,-79 216,-52 431,-128 642,-228 408,-194 806,-479 1188,-847 l 0,0 0,0 0,0 0,0 c 93,-90 185,-184 275,-282 329,381 648,707 946,946 l 0,0 c 162,131 332,247 501,332 94,48 188,86 280,112 105,30 208,46 308,46 107,0 205,-17 296,-49 92,-33 176,-80 253,-141 70,-56 134,-124 190,-203 50,-69 95,-148 135,-236 l 0,0 0,0 0,0 0,0 0,0 0,0 c 76,-168 133,-374 170,-612 33,-218 50,-465 50,-734 0,-1053 -256,-2485 -725,-3925 469,-1440 725,-2872 725,-3924 0,-269 -17,-516 -50,-735 -37,-238 -94,-444 -170,-612 l 0,0 0,0 0,0 0,0 0,0 0,0 c -40,-88 -85,-167 -135,-236 -56,-79 -120,-147 -190,-203 -77,-61 -161,-108 -253,-141 -91,-32 -189,-49 -296,-49 -100,0 -203,16 -308,46 -93,27 -186,65 -281,112 -168,85 -338,202 -500,332 l 0,0 c -298,240 -617,566 -946,947 -90,-99 -182,-193 -275,-282 l 0,0 0,0 0,0 0,0 c -382,-368 -780,-653 -1188,-847 -211,-101 -425,-177 -642,-229 -220,-52 -442,-79 -666,-79 -224,0 -447,27 -666,79 -217,52 -431,128 -642,229 -408,194 -806,479 -1188,847 l 0,0 0,0 0,0 0,0 c -93,89 -185,183 -275,282 -329,-381 -648,-707 -946,-947 l 0,0 c -163,-130 -333,-247 -501,-332 -94,-47 -188,-85 -280,-112 -105,-30 -209,-46 -309,-46 -106,0 -204,17 -295,49 -92,33 -176,80 -253,141 -70,56 -134,124 -190,203 -50,69 -95,148 -135,236 z"
                 id="path65"
                 inkscape:connector-curvature="0"
                 style="fill:none;stroke:#ffffff" /><path
                 d="m 7863,6318 c -62,-80 -123,-158 -184,-236 101,-113 205,-221 310,-323 l 0,0 c 323,-311 658,-555 1004,-719 165,-79 333,-139 503,-180 166,-40 334,-60 504,-60 170,0 338,20 504,60 170,41 338,101 503,180 346,164 681,408 1004,719 l 0,0 c 105,102 209,209 310,323 -61,77 -122,156 -184,236 l 0,0 0,0 0,0 0,0 0,0 0,0 C 11456,7203 10729,8277 10000,9369 9270,8277 8543,7203 7863,6318 z"
                 id="path67"
                 inkscape:connector-curvature="0"
                 style="fill:none;stroke:#ffffff" /><path
                 d="m 13225,6082 c 324,-383 638,-710 931,-946 123,-99 250,-189 377,-253 53,-27 106,-49 159,-64 39,-12 77,-19 114,-19 23,0 44,3 64,10 17,6 33,16 48,27 22,18 41,40 59,64 24,34 45,73 65,115 l 0,0 c 53,119 90,264 116,432 29,186 42,398 42,628 0,776 -151,1771 -428,2819 -228,-562 -487,-1111 -775,-1624 l 0,0 0,0 0,0 0,0 0,0 0,0 c -239,-427 -498,-827 -772,-1189 z"
                 id="path69"
                 inkscape:connector-curvature="0"
                 style="fill:none;stroke:#ffffff" /><path
                 d="m 12692,6744 c 26,-33 52,-67 78,-100 218,299 424,625 617,970 l 0,0 c 416,742 769,1562 1050,2386 -281,824 -634,1645 -1050,2387 l 0,0 c -193,345 -399,670 -617,970 -26,-33 -52,-67 -78,-101 l 0,0 c -723,-940 -1497,-2094 -2271,-3256 774,-1161 1548,-2316 2271,-3255 l 0,-1 z"
                 id="path71"
                 inkscape:connector-curvature="0"
                 style="fill:none;stroke:#ffffff" /><path
                 d="m 7863,13683 c 680,-886 1407,-1959 2137,-3052 729,1093 1456,2166 2137,3052 l 0,0 0,0 0,0 0,0 0,0 0,0 c 62,80 123,158 184,235 -101,114 -205,222 -310,324 l 0,0 c -323,311 -658,554 -1004,718 -165,79 -333,140 -503,180 -166,40 -334,60 -504,60 -170,0 -338,-20 -504,-60 -170,-40 -338,-101 -503,-179 -346,-165 -681,-408 -1004,-719 l 0,0 c -105,-102 -209,-210 -310,-324 61,-77 122,-156 184,-235 z"
                 id="path73"
                 inkscape:connector-curvature="0"
                 style="fill:none;stroke:#ffffff" /><path
                 d="m 13997,12729 c 288,-513 547,-1061 775,-1623 277,1047 428,2042 428,2819 0,230 -13,441 -42,628 -26,167 -63,312 -116,431 l 0,0 c -20,42 -41,81 -65,115 -18,24 -37,46 -59,64 -15,11 -31,21 -48,27 -20,7 -41,10 -64,10 -37,0 -75,-7 -115,-19 -52,-15 -105,-37 -158,-64 -127,-64 -255,-153 -377,-252 -293,-236 -607,-564 -931,-946 274,-362 533,-762 772,-1190 z"
                 id="path75"
                 inkscape:connector-curvature="0"
                 style="fill:none;stroke:#ffffff" /><path
                 d="m 5130,15190 c -17,-6 -33,-15 -48,-27 -22,-18 -41,-40 -59,-64 -24,-34 -45,-73 -65,-115 l 0,0 c -53,-119 -90,-264 -116,-431 -29,-187 -42,-398 -42,-628 0,-777 151,-1772 428,-2819 228,562 487,1111 774,1623 l 0,0 c 240,428 498,828 773,1190 -324,382 -638,710 -931,946 -123,99 -250,188 -377,252 -54,27 -106,49 -159,64 -39,12 -77,19 -115,19 -22,0 -43,-3 -63,-10 z"
                 id="path77"
                 inkscape:connector-curvature="0"
                 style="fill:none;stroke:#ffffff" /><path
                 d="m 7504,14746 242,-252 -242,252 z"
                 id="path79"
                 inkscape:connector-curvature="0"
                 style="fill:none;stroke:#ffffff" /><path
                 d="m 12496,14746 -242,-252 242,252 z"
                 id="path81"
                 inkscape:connector-curvature="0"
                 style="fill:none;stroke:#ffffff" /><path
                 d="m 12496,5255 0,0 -242,252 242,-252 z"
                 id="path83"
                 inkscape:connector-curvature="0"
                 style="fill:none;stroke:#ffffff" /><path
                 d="m 7504,5255 0,0 242,252 -242,-252 z"
                 id="path85"
                 inkscape:connector-curvature="0"
                 style="fill:none;stroke:#ffffff" /><path
                 d="m 3350,16550 c -276,0 -500,-224 -500,-500 l 0,-12100 c 0,-276 224,-500 500,-500 l 13300,0 c 276,0 500,224 500,500 l 0,12100 c 0,276 -224,500 -500,500 l -13300,0 z"
                 id="path87"
                 inkscape:connector-curvature="0"
                 style="fill:none;stroke:#ffffff" /></g></g></g></g></g></g></svg>