<?xml version="1.0" encoding="utf-8" standalone="no"?>
<!DOCTYPE svg PUBLIC "-//W3C//DTD SVG 1.1//EN"
  "http://www.w3.org/Graphics/SVG/1.1/DTD/svg11.dtd">
<svg xmlns:xlink="http://www.w3.org/1999/xlink" width="432pt" height="432pt" viewBox="0 0 432 432" xmlns="http://www.w3.org/2000/svg" version="1.1">
 <metadata>
  <rdf:RDF xmlns:dc="http://purl.org/dc/elements/1.1/" xmlns:cc="http://creativecommons.org/ns#" xmlns:rdf="http://www.w3.org/1999/02/22-rdf-syntax-ns#">
   <cc:Work>
    <dc:type rdf:resource="http://purl.org/dc/dcmitype/StillImage"/>
    <dc:date>2025-10-19T11:18:56.858645</dc:date>
    <dc:format>image/svg+xml</dc:format>
    <dc:creator>
     <cc:Agent>
      <dc:title>Matplotlib v3.10.1, https://matplotlib.org/</dc:title>
     </cc:Agent>
    </dc:creator>
   </cc:Work>
  </rdf:RDF>
 </metadata>
 <defs>
  <style type="text/css">*{stroke-linejoin: round; stroke-linecap: butt}</style>
 </defs>
 <g id="figure_1">
  <g id="patch_1">
   <path d="M 0 432 
L 432 432 
L 432 0 
L 0 0 
z
"/>
  </g>
  <g id="axes_1">
   <g id="patch_2">
    <path d="M 10.8 421.2 
L 421.2 421.2 
L 421.2 10.8 
L 10.8 10.8 
z
"/>
   </g>
   <g id="matplotlib.axis_1"/>
   <g id="matplotlib.axis_2"/>
   <g id="line2d_1">
    <path d="M 216 216 
L 244.079772 174.080699 
L 257.919301 153.794124 
L 271.51968 134.305561 
L 280.415353 121.880509 
L 289.147655 109.992406 
L 297.694439 98.709076 
L 306.034027 88.094888 
L 314.145269 78.210398 
L 322.007594 69.111995 
L 329.601059 60.851586 
L 336.906408 53.476297 
L 340.445219 50.133924 
L 343.905112 47.028203 
L 347.283893 44.163562 
L 350.57942 41.54409 
L 353.789602 39.173524 
L 356.912405 37.055247 
L 359.945847 35.192279 
L 362.888005 33.58728 
L 365.737013 32.242539 
L 368.491065 31.159975 
L 371.148414 30.341133 
L 373.707375 29.787181 
L 376.166324 29.498908 
L 378.523703 29.476727 
L 380.778017 29.720669 
L 382.927836 30.230387 
L 384.971797 31.005152 
L 386.908604 32.043859 
L 388.737028 33.345027 
L 390.45591 34.906798 
L 392.064159 36.726946 
L 393.560757 38.802872 
L 394.944753 41.131615 
L 396.215271 43.709853 
L 397.371504 46.533906 
L 398.41272 49.599746 
L 399.338258 52.902999 
L 400.14753 56.438951 
L 400.840025 60.202558 
L 401.415302 64.188449 
L 401.872997 68.390938 
L 402.212819 72.80403 
L 402.434554 77.421427 
L 402.538061 82.236542 
L 402.523273 87.242504 
L 402.3902 92.432172 
L 401.769613 103.332755 
L 400.677874 114.876104 
L 399.117751 126.996362 
L 397.093202 139.624385 
L 394.60936 152.68813 
L 391.672526 166.113069 
L 388.290147 179.822611 
L 384.470803 193.738545 
L 380.224181 207.78148 
L 375.561049 221.871302 
L 370.493236 235.927628 
L 365.033594 249.870267 
L 359.19597 263.619677 
L 356.140005 270.397353 
L 352.99517 277.097418 
L 349.763458 283.710311 
L 346.44692 290.226598 
L 343.047658 296.636982 
L 339.567828 302.932317 
L 336.009636 309.10362 
L 332.375341 315.142088 
L 328.667245 321.039104 
L 324.8877 326.786255 
L 321.039104 332.375341 
L 317.123896 337.798387 
L 313.144561 343.047658 
L 309.10362 348.115662 
L 305.003638 352.99517 
L 300.847213 357.679219 
L 296.636982 362.161126 
L 292.375615 366.434498 
L 288.065813 370.493236 
L 283.710311 374.33155 
L 279.31187 377.943964 
L 274.873279 381.325323 
L 270.397353 384.470803 
L 265.886931 387.375917 
L 261.344873 390.03652 
L 256.77406 392.448814 
L 252.177389 394.60936 
L 247.557776 396.515074 
L 242.918151 398.163236 
L 238.261455 399.551497 
L 233.590642 400.677874 
L 228.908674 401.540761 
L 224.21852 402.138927 
L 219.523154 402.471519 
L 214.825553 402.538061 
L 210.128698 402.338458 
L 205.435566 401.872997 
L 200.749133 401.14234 
L 196.072372 400.14753 
L 191.408248 398.889987 
L 186.759719 397.371504 
L 182.129733 395.594249 
L 177.521225 393.560757 
L 172.93712 391.273929 
L 168.380323 388.737028 
L 163.853724 385.953673 
L 159.360194 382.927836 
L 154.902582 379.663834 
L 150.483716 376.166324 
L 146.106397 372.440296 
L 141.773402 368.491065 
L 137.487478 364.324267 
L 133.251343 359.945847 
L 129.067683 355.362051 
L 124.939152 350.57942 
L 120.868368 345.604776 
L 116.857912 340.445219 
L 112.910328 335.108108 
L 109.028118 329.601059 
L 105.213745 323.93193 
L 101.469628 318.108808 
L 97.798141 312.140002 
L 94.201613 306.034027 
L 90.682323 299.799596 
L 87.242504 293.445603 
L 83.884338 286.981115 
L 80.609953 280.415353 
L 77.421427 273.757687 
L 74.320781 267.017615 
L 68.390938 253.328822 
L 62.835465 239.427068 
L 57.66845 225.391663 
L 52.902999 211.302679 
L 48.551197 197.240493 
L 44.624083 183.28533 
L 41.131615 169.516803 
L 38.082652 156.013463 
L 35.484926 142.852345 
L 33.345027 130.108533 
L 31.66838 117.854731 
L 30.459239 106.160846 
L 29.720669 95.093592 
L 29.528481 89.814832 
L 29.454545 84.716107 
L 29.498908 79.804693 
L 29.661542 75.087595 
L 29.942343 70.571546 
L 30.341133 66.262987 
L 30.85766 62.168066 
L 31.491596 58.292625 
L 32.242539 54.642195 
L 33.110013 51.221983 
L 34.093468 48.036868 
L 35.192279 45.091396 
L 36.405751 42.389769 
L 37.733113 39.935841 
L 39.173524 37.733113 
L 40.726071 35.784729 
L 42.389769 34.093468 
L 44.163562 32.661742 
L 46.046327 31.491596 
L 48.036868 30.584698 
L 50.133924 29.942343 
L 52.336166 29.565446 
L 54.642195 29.454545 
L 57.05055 29.6098 
L 59.559704 30.030987 
L 62.168066 30.717507 
L 64.873981 31.66838 
L 67.675733 32.882249 
L 70.571546 34.357382 
L 73.559583 36.091674 
L 76.637949 38.082652 
L 79.804693 40.327474 
L 83.057805 42.822938 
L 86.395224 45.565484 
L 89.814832 48.551197 
L 93.314461 51.775819 
L 96.891892 55.234749 
L 104.271036 62.835465 
L 111.93355 71.309982 
L 119.859998 80.609953 
L 128.030279 90.682323 
L 136.423671 101.469628 
L 145.018885 112.910328 
L 153.794124 124.939152 
L 162.72713 137.487478 
L 176.372798 157.126721 
L 190.244538 177.521225 
L 213.651153 212.476846 
L 241.755462 254.478775 
L 255.627202 274.873279 
L 269.27287 294.512522 
L 278.205876 307.060848 
L 286.981115 319.089672 
L 295.576329 330.530372 
L 303.969721 341.317677 
L 312.140002 351.390047 
L 320.06645 360.690018 
L 327.728964 369.164535 
L 335.108108 376.765251 
L 338.685539 380.224181 
L 342.185168 383.448803 
L 345.604776 386.434516 
L 348.942195 389.177062 
L 352.195307 391.672526 
L 355.362051 393.917348 
L 358.440417 395.908326 
L 361.428454 397.642618 
L 364.324267 399.117751 
L 367.126019 400.33162 
L 369.831934 401.282493 
L 372.440296 401.969013 
L 374.94945 402.3902 
L 377.357805 402.545455 
L 379.663834 402.434554 
L 381.866076 402.057657 
L 383.963132 401.415302 
L 385.953673 400.508404 
L 387.836438 399.338258 
L 389.610231 397.906532 
L 391.273929 396.215271 
L 392.826476 394.266887 
L 394.266887 392.064159 
L 395.594249 389.610231 
L 396.807721 386.908604 
L 397.906532 383.963132 
L 398.889987 380.778017 
L 399.757461 377.357805 
L 400.508404 373.707375 
L 401.14234 369.831934 
L 401.658867 365.737013 
L 402.057657 361.428454 
L 402.338458 356.912405 
L 402.501092 352.195307 
L 402.545455 347.283893 
L 402.471519 342.185168 
L 402.279331 336.906408 
L 401.540761 325.839154 
L 400.33162 314.145269 
L 398.654973 301.891467 
L 396.515074 289.147655 
L 393.917348 275.986537 
L 390.868385 262.483197 
L 387.375917 248.71467 
L 383.448803 234.759507 
L 379.097001 220.697321 
L 374.33155 206.608337 
L 369.164535 192.572932 
L 363.609062 178.671178 
L 357.679219 164.982385 
L 354.578573 158.242313 
L 351.390047 151.584647 
L 348.115662 145.018885 
L 344.757496 138.554397 
L 341.317677 132.200404 
L 337.798387 125.965973 
L 334.201859 119.859998 
L 330.530372 113.891192 
L 326.786255 108.06807 
L 322.971882 102.398941 
L 319.089672 96.891892 
L 315.142088 91.554781 
L 311.131632 86.395224 
L 307.060848 81.42058 
L 302.932317 76.637949 
L 298.748657 72.054153 
L 294.512522 67.675733 
L 290.226598 63.508935 
L 285.893603 59.559704 
L 281.516284 55.833676 
L 277.097418 52.336166 
L 272.639806 49.072164 
L 268.146276 46.046327 
L 263.619677 43.262972 
L 259.06288 40.726071 
L 254.478775 38.439243 
L 249.870267 36.405751 
L 245.240281 34.628496 
L 240.591752 33.110013 
L 235.927628 31.85247 
L 231.250867 30.85766 
L 226.564434 30.127003 
L 221.871302 29.661542 
L 217.174447 29.461939 
L 212.476846 29.528481 
L 207.78148 29.861073 
L 203.091326 30.459239 
L 198.409358 31.322126 
L 193.738545 32.448503 
L 189.081849 33.836764 
L 184.442224 35.484926 
L 179.822611 37.39064 
L 175.22594 39.551186 
L 170.655127 41.96348 
L 166.113069 44.624083 
L 161.602647 47.529197 
L 157.126721 50.674677 
L 152.68813 54.056036 
L 148.289689 57.66845 
L 143.934187 61.506764 
L 139.624385 65.565502 
L 135.363018 69.838874 
L 131.152787 74.320781 
L 126.996362 79.00483 
L 122.89638 83.884338 
L 118.855439 88.952342 
L 114.876104 94.201613 
L 110.960896 99.624659 
L 107.1123 105.213745 
L 103.332755 110.960896 
L 99.624659 116.857912 
L 95.990364 122.89638 
L 92.432172 129.067683 
L 88.952342 135.363018 
L 85.55308 141.773402 
L 82.236542 148.289689 
L 79.00483 154.902582 
L 75.859995 161.602647 
L 69.838874 175.22594 
L 64.188449 189.081849 
L 58.923052 203.091326 
L 54.056036 217.174447 
L 49.599746 231.250867 
L 45.565484 245.240281 
L 41.96348 259.06288 
L 38.802872 272.639806 
L 36.091674 285.893603 
L 33.836764 298.748657 
L 32.043859 311.131632 
L 30.717507 322.971882 
L 29.861073 334.201859 
L 29.476727 344.757496 
L 29.461939 349.763458 
L 29.565446 354.578573 
L 29.787181 359.19597 
L 30.127003 363.609062 
L 30.584698 367.811551 
L 31.159975 371.797442 
L 31.85247 375.561049 
L 32.661742 379.097001 
L 33.58728 382.400254 
L 34.628496 385.466094 
L 35.784729 388.290147 
L 37.055247 390.868385 
L 38.439243 393.197128 
L 39.935841 395.273054 
L 41.54409 397.093202 
L 43.262972 398.654973 
L 45.091396 399.956141 
L 47.028203 400.994848 
L 49.072164 401.769613 
L 51.221983 402.279331 
L 53.476297 402.523273 
L 55.833676 402.501092 
L 58.292625 402.212819 
L 60.851586 401.658867 
L 63.508935 400.840025 
L 66.262987 399.757461 
L 69.111995 398.41272 
L 72.054153 396.807721 
L 75.087595 394.944753 
L 78.210398 392.826476 
L 81.42058 390.45591 
L 84.716107 387.836438 
L 88.094888 384.971797 
L 91.554781 381.866076 
L 95.093592 378.523703 
L 102.398941 371.148414 
L 109.992406 362.888005 
L 117.854731 353.789602 
L 125.965973 343.905112 
L 134.305561 333.290924 
L 142.852345 322.007594 
L 151.584647 310.119491 
L 160.48032 297.694439 
L 174.080699 278.205876 
L 187.920228 257.919301 
L 206.608337 230.080049 
L 216 216 
L 216 216 
" clip-path="url(#pb143720774)" style="fill: none; stroke: #ffffff; stroke-width: 25; stroke-linecap: square"/>
   </g>
  </g>
 </g>
 <defs>
  <clipPath id="pb143720774">
   <rect x="10.8" y="10.8" width="410.4" height="410.4"/>
  </clipPath>
 </defs>
</svg>
